<?xml version="1.0" encoding="iso-8859-1"?>
<!-- Generator: Adobe Illustrator 16.0.4, SVG Export Plug-In . SVG Version: 6.00 Build 0)  -->
<!DOCTYPE svg PUBLIC "-//W3C//DTD SVG 1.1//EN" "http://www.w3.org/Graphics/SVG/1.1/DTD/svg11.dtd">
<svg version="1.1" id="Layer_1" xmlns="http://www.w3.org/2000/svg" xmlns:xlink="http://www.w3.org/1999/xlink" x="0px" y="0px"
	 width="142.125px" height="40.75px" viewBox="0 0 142.125 40.75" style="enable-background:new 0 0 142.125 40.75;"
	 xml:space="preserve">
<g id="S1ctsm_1_">
	<g>
		<path d="M2.288,33.488c0.201,0.168,0.342,0.334,0.521,0.433c0.834,0.449,1.676,0.887,2.521,1.319
			c0.758,0.389,1.457,0.212,2.11-0.253c1.443-1.027,2.234-2.46,2.485-4.175c0.316-2.218,0.042-4.427-0.25-6.629
			c-0.043-0.294,0-0.473,0.225-0.689c0.976-0.945,1.094-2.548,0.1-3.448c-0.184-0.171-0.306-0.338-0.383-0.501
			c-0.168-0.368-0.003-1.499,0.015-1.659c0.174-1.283,0.557-2.409,1.203-3.344c0.366-0.527,0.815-0.995,1.361-1.393
			c0.424-0.308,1.444-0.795,1.444-0.795s10.619-4.214,13.451-5.27c0.298-0.11,0.654-0.166,0.97-0.125
			c0.517,0.055,0.885,0.526,0.913,1.037c0.04,0.616-0.273,1.006-0.976,1.274c-4.237,1.626-8.484,3.263-12.726,4.894
			c-0.151,0.062-0.298,0.137-0.491,0.22c0.11,0.062,8.474,2.871,12.622,4.229c0.302,0.096,0.703,0.076,1.005-0.029
			c7.731-2.559,15.447-5.144,23.172-7.711c0.497-0.166,0.876-0.411,0.896-0.996c0.017-0.505-0.256-0.811-0.91-1.026
			c-7.688-2.571-15.372-5.138-23.071-7.682c-0.366-0.124-0.841-0.137-1.201-0.02c-7.729,2.554-15.444,5.13-23.168,7.703
			C3.507,9.061,3.247,9.369,3.239,9.856c-0.005,0.493,0.255,0.79,0.88,1.003c1.485,0.498,2.975,0.989,4.449,1.486
			c0.23,0.078,0.453,0.169,0.695,0.258c-0.265,0.422-0.525,0.788-0.744,1.177c-0.878,1.558-1.207,3.27-1.371,5.021
			c-0.031,0.369-0.137,0.622-0.466,0.856c-1.288,0.898-1.489,2.858-0.261,3.804c0.732,0.559,0.677,1.089,0.516,1.773
			c-0.056,0.261-0.105,0.524-0.168,0.784c-0.599,2.64-1.937,4.866-3.847,6.77C2.713,32.996,2.525,33.227,2.288,33.488z
			 M43.636,16.263c-0.228,0.07-0.379,0.115-0.534,0.166c-4.673,1.557-9.354,3.105-14.019,4.674
			c-0.831,0.282-1.621,0.282-2.443,0.002c-3.186-1.079-6.377-2.131-9.57-3.193c-1.48-0.499-2.964-0.991-4.586-1.534
			c-0.106,0.869-0.225,1.667-0.274,2.472c-0.019,0.182,0.124,0.435,0.274,0.552c1.251,0.984,1.723,2.297,1.475,3.81
			c-0.119,0.726-0.543,1.4-0.854,2.157c0.48,0.64,1.667,1.463,3.111,2.069c2.447,1.026,5.006,1.568,7.643,1.834
			c4.027,0.412,8.022,0.271,11.975-0.64c2.024-0.466,3.971-1.12,5.714-2.302c1.38-0.941,2.189-2.148,2.107-3.92
			c-0.08-1.848-0.019-3.704-0.019-5.552C43.636,16.678,43.636,16.5,43.636,16.263z"/>
	</g>
</g>
<g id="S1ctsm_4_">
	<g>
		<path d="M127.406,22.067c0.052,0.041,0.089,0.083,0.132,0.108c0.21,0.111,0.419,0.221,0.63,0.329
			c0.191,0.097,0.367,0.053,0.528-0.064c0.362-0.256,0.559-0.615,0.622-1.042c0.079-0.555,0.01-1.108-0.063-1.658
			c-0.012-0.073,0-0.119,0.055-0.172c0.247-0.237,0.275-0.638,0.025-0.862c-0.046-0.043-0.075-0.084-0.094-0.125
			c-0.044-0.092-0.001-0.375,0.002-0.414c0.046-0.321,0.14-0.603,0.301-0.836c0.091-0.132,0.203-0.249,0.343-0.348
			c0.104-0.078,0.36-0.199,0.36-0.199s2.655-1.055,3.361-1.318c0.073-0.027,0.165-0.042,0.243-0.03
			c0.129,0.013,0.223,0.131,0.229,0.258c0.008,0.154-0.07,0.25-0.243,0.319c-1.062,0.406-2.122,0.815-3.187,1.223
			c-0.036,0.016-0.074,0.034-0.119,0.055c0.027,0.015,2.116,0.718,3.153,1.056c0.074,0.025,0.175,0.019,0.253-0.007
			c1.934-0.639,3.859-1.286,5.793-1.927c0.124-0.042,0.219-0.104,0.225-0.249c0.005-0.126-0.065-0.202-0.229-0.257
			c-1.922-0.642-3.842-1.284-5.765-1.92c-0.092-0.031-0.215-0.033-0.301-0.005c-1.935,0.638-3.863,1.283-5.796,1.926
			c-0.152,0.053-0.218,0.129-0.219,0.25c0,0.124,0.062,0.199,0.219,0.25c0.373,0.125,0.744,0.249,1.113,0.373
			c0.056,0.019,0.114,0.041,0.171,0.064c-0.064,0.106-0.127,0.198-0.185,0.294c-0.218,0.39-0.302,0.818-0.342,1.255
			c-0.008,0.092-0.035,0.156-0.116,0.214c-0.325,0.225-0.374,0.715-0.064,0.952c0.182,0.14,0.168,0.271,0.129,0.443
			c-0.016,0.064-0.027,0.13-0.041,0.196c-0.15,0.66-0.485,1.215-0.964,1.693C127.515,21.943,127.468,22.001,127.406,22.067z
			 M137.744,17.761c-0.056,0.018-0.096,0.03-0.133,0.042c-1.168,0.389-2.338,0.776-3.504,1.168c-0.209,0.071-0.405,0.071-0.612,0
			c-0.796-0.269-1.594-0.532-2.392-0.798c-0.372-0.125-0.74-0.247-1.146-0.382c-0.026,0.216-0.056,0.416-0.068,0.617
			c-0.006,0.046,0.031,0.108,0.068,0.138c0.312,0.246,0.431,0.575,0.369,0.954c-0.029,0.182-0.136,0.35-0.214,0.539
			c0.119,0.159,0.415,0.366,0.778,0.517c0.611,0.257,1.251,0.393,1.912,0.459c1.004,0.103,2.003,0.068,2.992-0.16
			c0.506-0.116,0.992-0.28,1.429-0.576c0.344-0.234,0.547-0.537,0.525-0.979c-0.019-0.464-0.005-0.926-0.005-1.389
			C137.744,17.866,137.744,17.82,137.744,17.761z"/>
	</g>
</g>
<g id="S1ctsm_3_">
	<g>
		<path d="M97.843,25.875c0.1,0.084,0.171,0.167,0.261,0.216c0.417,0.224,0.837,0.443,1.26,0.66
			c0.381,0.194,0.727,0.107,1.056-0.126c0.722-0.514,1.118-1.231,1.243-2.089c0.156-1.108,0.02-2.212-0.125-3.314
			c-0.023-0.146,0-0.236,0.111-0.345c0.487-0.473,0.547-1.274,0.049-1.723c-0.094-0.086-0.152-0.17-0.188-0.252
			c-0.086-0.183-0.004-0.748,0.005-0.828c0.088-0.642,0.277-1.205,0.602-1.672c0.183-0.263,0.408-0.498,0.68-0.697
			c0.213-0.154,0.725-0.397,0.725-0.397s5.307-2.108,6.724-2.634c0.148-0.056,0.328-0.084,0.484-0.064
			c0.258,0.028,0.444,0.263,0.458,0.519c0.02,0.31-0.138,0.503-0.49,0.637c-2.117,0.815-4.24,1.633-6.361,2.448
			c-0.078,0.031-0.151,0.067-0.247,0.109c0.058,0.032,4.238,1.437,6.312,2.115c0.149,0.048,0.351,0.038,0.503-0.014
			c3.864-1.28,7.722-2.572,11.584-3.856c0.25-0.083,0.438-0.207,0.448-0.497c0.01-0.253-0.126-0.407-0.455-0.514
			c-3.843-1.286-7.686-2.569-11.533-3.841c-0.184-0.062-0.421-0.069-0.601-0.009c-3.864,1.276-7.724,2.564-11.587,3.85
			c-0.308,0.105-0.438,0.259-0.441,0.503c0,0.246,0.129,0.394,0.44,0.501c0.743,0.248,1.487,0.494,2.225,0.743
			c0.114,0.039,0.226,0.085,0.348,0.13c-0.136,0.21-0.263,0.393-0.373,0.589c-0.439,0.778-0.604,1.634-0.685,2.509
			c-0.018,0.185-0.068,0.311-0.231,0.428c-0.646,0.45-0.747,1.429-0.132,1.901c0.365,0.279,0.337,0.545,0.258,0.888
			c-0.028,0.13-0.052,0.262-0.084,0.393c-0.298,1.319-0.969,2.433-1.925,3.384C98.055,25.628,97.961,25.743,97.843,25.875z
			 M118.515,17.261c-0.112,0.036-0.189,0.058-0.267,0.084c-2.336,0.778-4.675,1.552-7.009,2.336c-0.416,0.14-0.812,0.14-1.222,0
			c-1.592-0.538-3.188-1.064-4.786-1.595c-0.738-0.25-1.48-0.497-2.294-0.768c-0.051,0.435-0.11,0.834-0.136,1.236
			c-0.009,0.091,0.061,0.218,0.136,0.276c0.627,0.492,0.864,1.15,0.739,1.906c-0.06,0.363-0.271,0.699-0.427,1.079
			c0.238,0.32,0.835,0.731,1.555,1.036c1.226,0.512,2.504,0.783,3.822,0.916c2.016,0.206,4.012,0.135,5.987-0.319
			c1.013-0.234,1.985-0.56,2.858-1.152c0.688-0.471,1.095-1.074,1.054-1.959c-0.04-0.926-0.012-1.853-0.012-2.778
			C118.515,17.468,118.515,17.38,118.515,17.261z"/>
	</g>
</g>
<g id="S1ctsm_2_">
	<g>
		<path d="M56.284,29.682c0.149,0.126,0.256,0.251,0.391,0.324c0.626,0.337,1.256,0.666,1.892,0.989
			c0.568,0.292,1.091,0.161,1.582-0.189c1.084-0.771,1.677-1.846,1.864-3.132c0.237-1.664,0.03-3.319-0.187-4.971
			c-0.034-0.221,0-0.355,0.166-0.518c0.734-0.709,0.822-1.911,0.074-2.587c-0.138-0.128-0.228-0.253-0.286-0.375
			c-0.126-0.276-0.001-1.124,0.012-1.245c0.129-0.962,0.416-1.807,0.899-2.507c0.275-0.396,0.612-0.747,1.023-1.046
			c0.317-0.232,1.083-0.596,1.083-0.596s7.966-3.16,10.088-3.951c0.223-0.083,0.488-0.126,0.725-0.096
			c0.387,0.042,0.664,0.396,0.686,0.779c0.03,0.462-0.205,0.754-0.731,0.955c-3.177,1.221-6.363,2.447-9.544,3.671
			c-0.113,0.046-0.224,0.102-0.368,0.164c0.081,0.047,6.354,2.153,9.466,3.172c0.226,0.073,0.528,0.057,0.754-0.021
			c5.797-1.919,11.585-3.857,17.38-5.784c0.373-0.125,0.657-0.309,0.671-0.747c0.015-0.38-0.192-0.608-0.684-0.77
			C87.477,9.275,81.715,7.35,75.938,5.441c-0.276-0.093-0.628-0.103-0.901-0.014c-5.794,1.915-11.582,3.848-17.375,5.777
			c-0.464,0.156-0.659,0.387-0.664,0.752c-0.003,0.371,0.191,0.593,0.661,0.753c1.114,0.373,2.231,0.741,3.334,1.114
			c0.174,0.058,0.34,0.127,0.523,0.194c-0.199,0.316-0.394,0.59-0.56,0.883c-0.658,1.168-0.905,2.453-1.027,3.766
			c-0.024,0.276-0.104,0.467-0.349,0.642c-0.968,0.674-1.118,2.143-0.197,2.852c0.548,0.42,0.509,0.818,0.387,1.331
			c-0.04,0.197-0.078,0.394-0.126,0.589c-0.449,1.979-1.451,3.649-2.884,5.077C56.602,29.312,56.461,29.487,56.284,29.682z
			 M87.297,16.762c-0.175,0.053-0.287,0.086-0.404,0.125c-3.502,1.168-7.015,2.33-10.514,3.506c-0.623,0.211-1.216,0.211-1.83,0.002
			c-2.39-0.81-4.784-1.6-7.181-2.396c-1.11-0.374-2.223-0.744-3.438-1.151c-0.079,0.652-0.169,1.252-0.207,1.854
			c-0.014,0.136,0.094,0.327,0.207,0.415c0.939,0.739,1.292,1.723,1.104,2.857c-0.086,0.544-0.404,1.05-0.64,1.618
			c0.362,0.48,1.252,1.097,2.336,1.552c1.834,0.769,3.753,1.175,5.731,1.375c3.02,0.309,6.013,0.203,8.979-0.481
			c1.519-0.349,2.979-0.839,4.286-1.726c1.036-0.705,1.644-1.61,1.581-2.939c-0.06-1.386-0.011-2.778-0.011-4.165
			C87.297,17.073,87.297,16.94,87.297,16.762z"/>
	</g>
</g>
</svg>
